<svg width="14" height="14" viewBox="0 0 14 14" fill="none" xmlns="http://www.w3.org/2000/svg">
<mask id="mask0_7805_3603" style="mask-type:alpha" maskUnits="userSpaceOnUse" x="0" y="0" width="14" height="14">
<rect width="14" height="14" fill="#D9D9D9"/>
</mask>
<g mask="url(#mask0_7805_3603)">
<path d="M7.00116 13.1638C6.23239 13.1638 5.51174 13.0184 4.83921 12.7276C4.16669 12.4368 3.58092 12.0419 3.08192 11.5428C2.58292 11.0438 2.188 10.4581 1.89717 9.78555C1.60635 9.11303 1.46094 8.39569 1.46094 7.63355H3.0068C3.0068 8.74349 3.39418 9.68505 4.16895 10.4582C4.94371 11.2314 5.88721 11.618 6.99945 11.618C8.1094 11.618 9.05096 11.2306 9.82411 10.4558C10.5973 9.68105 10.9839 8.73755 10.9839 7.62531C10.9839 6.51537 10.5965 5.57382 9.82172 4.80065C9.04696 4.02748 8.10346 3.64089 6.99122 3.64089H6.89548L7.7337 4.47911L6.82635 5.41563L4.27869 2.86798L6.82635 0.320312L7.7337 1.26506L6.90371 2.09505H6.99122C7.7604 2.09505 8.48086 2.24046 9.15261 2.53128C9.82437 2.8221 10.4111 3.21701 10.9129 3.71601C11.4146 4.21503 11.8109 4.79958 12.1017 5.46969C12.3926 6.1398 12.538 6.85851 12.538 7.6258C12.538 8.39311 12.3926 9.11303 12.1017 9.78555C11.8109 10.4581 11.416 11.0438 10.917 11.5428C10.418 12.0419 9.83279 12.4368 9.16139 12.7276C8.49 13.0184 7.76993 13.1638 7.00116 13.1638Z" fill="white"/>
</g>
</svg>
