<svg width="19" height="18" viewBox="0 0 19 18" fill="none" xmlns="http://www.w3.org/2000/svg">
<path d="M16.2556 17L10.6556 11.4C10.2111 11.7556 9.7 12.037 9.12222 12.2444C8.54444 12.4519 7.92963 12.5556 7.27778 12.5556C5.66296 12.5556 4.2963 11.9963 3.17778 10.8778C2.05926 9.75926 1.5 8.39259 1.5 6.77778C1.5 5.16296 2.05926 3.7963 3.17778 2.67778C4.2963 1.55926 5.66296 1 7.27778 1C8.89259 1 10.2593 1.55926 11.3778 2.67778C12.4963 3.7963 13.0556 5.16296 13.0556 6.77778C13.0556 7.42963 12.9519 8.04444 12.7444 8.62222C12.537 9.2 12.2556 9.71111 11.9 10.1556L17.5 15.7556L16.2556 17ZM7.27778 10.7778C8.38889 10.7778 9.33333 10.3889 10.1111 9.61111C10.8889 8.83333 11.2778 7.88889 11.2778 6.77778C11.2778 5.66667 10.8889 4.72222 10.1111 3.94444C9.33333 3.16667 8.38889 2.77778 7.27778 2.77778C6.16667 2.77778 5.22222 3.16667 4.44444 3.94444C3.66667 4.72222 3.27778 5.66667 3.27778 6.77778C3.27778 7.88889 3.66667 8.83333 4.44444 9.61111C5.22222 10.3889 6.16667 10.7778 7.27778 10.7778Z" fill="#1D2023"/>
</svg>
