<svg width="321" height="320" viewBox="0 0 321 320" fill="none" xmlns="http://www.w3.org/2000/svg">
<circle cx="160.523" cy="160" r="160" fill="white"/>
<path opacity="0.3" d="M154.565 34.141C133.097 35.1573 112.246 41.6479 93.9946 52.9958C75.7428 64.3436 60.6971 80.1714 50.2879 98.9743C39.8788 117.777 34.4522 138.93 34.5241 160.422C34.5961 181.914 40.1642 203.03 50.699 221.762C61.2338 240.495 76.3852 256.222 94.7125 267.447C113.04 278.673 133.934 285.024 155.408 285.896C176.882 286.769 198.222 282.134 217.4 272.432C236.578 262.731 252.955 248.285 264.975 230.469" stroke="black"/>
<path d="M269.643 223C280.59 204.039 286.407 182.553 286.522 160.66C286.636 138.766 281.044 117.22 270.296 98.1461C259.549 79.0718 244.016 63.1273 225.23 51.8838C206.443 40.6404 185.051 34.4861 163.162 34.0276" stroke="black"/>
<rect x="262.078" y="145" width="51" height="30" rx="4" fill="white"/>
<path d="M275.682 167.14C273.042 167.14 271.002 165.8 270.442 163.46L272.142 163.04C272.582 164.6 273.862 165.62 275.702 165.62C277.502 165.62 278.622 164.72 278.622 163.02C278.622 161.54 277.582 160.42 275.462 160.42H274.102L274.382 159.02H275.542C277.042 159.02 278.222 158.16 278.222 156.58C278.222 155.24 277.182 154.38 275.622 154.38C274.022 154.38 272.982 155.28 272.682 156.76L271.042 156.34C271.402 154.3 273.262 152.86 275.702 152.86C278.342 152.86 280.022 154.22 280.022 156.36C280.022 158 278.922 159.14 277.402 159.56C279.182 159.92 280.462 161.28 280.462 163.08C280.462 165.54 278.702 167.14 275.682 167.14ZM286.616 167.14C284.096 167.14 282.276 165.62 281.756 163.46L283.456 163.04C283.876 164.56 284.976 165.64 286.656 165.64C288.416 165.64 289.616 164.28 289.616 162.36C289.616 160.38 288.496 159.08 286.796 159.08C285.476 159.08 284.276 159.94 283.796 161.2H281.956L283.096 153H291.036L290.836 154.44H284.696L283.956 159.5C284.736 158.36 285.976 157.7 287.356 157.7C289.896 157.7 291.456 159.56 291.456 162.34C291.456 165.18 289.516 167.14 286.616 167.14ZM292.486 167L302.186 153H303.746L294.046 167H292.486ZM292.226 155.54C292.226 153.94 293.226 152.88 294.886 152.88C296.546 152.88 297.526 153.94 297.526 155.54C297.526 157.14 296.546 158.22 294.886 158.22C293.226 158.22 292.226 157.14 292.226 155.54ZM293.586 155.54C293.586 156.48 294.046 157.16 294.886 157.16C295.726 157.16 296.186 156.48 296.186 155.54C296.186 154.6 295.726 153.92 294.886 153.92C294.046 153.92 293.586 154.6 293.586 155.54ZM298.686 164.46C298.686 162.86 299.686 161.8 301.346 161.8C303.006 161.8 303.986 162.86 303.986 164.46C303.986 166.06 303.006 167.14 301.346 167.14C299.686 167.14 298.686 166.06 298.686 164.46ZM300.046 164.46C300.046 165.42 300.506 166.08 301.346 166.08C302.186 166.08 302.646 165.42 302.646 164.46C302.646 163.52 302.186 162.84 301.346 162.84C300.506 162.84 300.046 163.52 300.046 164.46Z" fill="#141414"/>
<rect x="10.5781" y="145" width="52" height="30" rx="4" fill="white"/>
<path opacity="0.3" d="M24.5181 167.14C21.7781 167.14 19.3781 165.12 19.3781 160.86C19.3781 156.02 21.2381 152.86 24.6981 152.86C26.9781 152.86 28.4781 154.14 29.0181 156.1L27.3181 156.5C26.8781 155.12 25.9781 154.38 24.5981 154.38C22.4781 154.38 21.1981 156.4 20.9981 160.9C21.6181 159.18 23.1781 158.08 24.9181 158.08C27.4381 158.08 29.1581 159.72 29.1581 162.42C29.1581 165.2 27.3781 167.14 24.5181 167.14ZM21.3581 162.5C21.3581 164.34 22.8381 165.62 24.4581 165.62C26.1781 165.62 27.3181 164.4 27.3181 162.5C27.3181 160.62 26.2381 159.44 24.4581 159.44C22.8581 159.44 21.3581 160.62 21.3581 162.5ZM35.2867 167.14C32.7667 167.14 30.9467 165.62 30.4267 163.46L32.1267 163.04C32.5467 164.56 33.6467 165.64 35.3267 165.64C37.0867 165.64 38.2867 164.28 38.2867 162.36C38.2867 160.38 37.1667 159.08 35.4667 159.08C34.1467 159.08 32.9467 159.94 32.4667 161.2H30.6267L31.7667 153H39.7067L39.5067 154.44H33.3667L32.6267 159.5C33.4067 158.36 34.6467 157.7 36.0267 157.7C38.5667 157.7 40.1267 159.56 40.1267 162.34C40.1267 165.18 38.1867 167.14 35.2867 167.14ZM41.1573 167L50.8573 153H52.4173L42.7173 167H41.1573ZM40.8973 155.54C40.8973 153.94 41.8973 152.88 43.5573 152.88C45.2173 152.88 46.1973 153.94 46.1973 155.54C46.1973 157.14 45.2173 158.22 43.5573 158.22C41.8973 158.22 40.8973 157.14 40.8973 155.54ZM42.2573 155.54C42.2573 156.48 42.7173 157.16 43.5573 157.16C44.3973 157.16 44.8573 156.48 44.8573 155.54C44.8573 154.6 44.3973 153.92 43.5573 153.92C42.7173 153.92 42.2573 154.6 42.2573 155.54ZM47.3573 164.46C47.3573 162.86 48.3573 161.8 50.0173 161.8C51.6773 161.8 52.6573 162.86 52.6573 164.46C52.6573 166.06 51.6773 167.14 50.0173 167.14C48.3573 167.14 47.3573 166.06 47.3573 164.46ZM48.7173 164.46C48.7173 165.42 49.1773 166.08 50.0173 166.08C50.8573 166.08 51.3173 165.42 51.3173 164.46C51.3173 163.52 50.8573 162.84 50.0173 162.84C49.1773 162.84 48.7173 163.52 48.7173 164.46Z" fill="black"/>
</svg>
