<svg width="16" height="16" viewBox="0 0 16 16" fill="none" xmlns="http://www.w3.org/2000/svg">
<path fill-rule="evenodd" clip-rule="evenodd" d="M8.39145 10.9928C7.93062 11.4472 7.47477 11.8935 7.02284 12.3439C6.86484 12.5014 6.68709 12.5883 6.46046 12.5759C6.3061 12.5676 6.21945 12.4982 6.17216 12.3493C5.82631 11.2608 5.47481 10.1743 5.13053 9.08532C5.09698 8.97929 5.04646 8.92835 4.94124 8.89576C4.12576 8.64312 3.3119 8.38501 2.49909 8.12372C2.37874 8.08503 2.25689 8.0353 2.15247 7.9651C1.97074 7.84297 1.9448 7.64877 2.11076 7.50816C2.2641 7.37822 2.4459 7.26942 2.63214 7.19478C3.66257 6.7819 4.69824 6.3824 5.73205 5.97814C8.21889 5.00569 10.7058 4.03333 13.1925 3.06041C13.6692 2.87389 14.0396 3.13256 13.9949 3.65339C13.9655 3.99672 13.8773 4.33557 13.8065 4.67452C13.2554 7.31272 12.7022 9.95044 12.1497 12.5883C12.1486 12.5934 12.1483 12.5986 12.1472 12.6037C12.0121 13.2071 11.5793 13.3721 11.0859 13.0042C10.2293 12.3656 9.37495 11.7241 8.5195 11.084C8.47905 11.0537 8.43721 11.0253 8.39145 10.9928ZM6.49656 11.8229C6.50988 11.761 6.51912 11.7324 6.52182 11.7033C6.57618 11.11 6.63299 10.5169 6.68112 9.92315C6.69183 9.79138 6.73063 9.69406 6.83124 9.60256C8.12931 8.42203 9.42336 7.23697 10.7184 6.05309C11.0868 5.71632 11.4567 5.38123 11.8216 5.04054C11.8599 5.00478 11.8682 4.93604 11.8904 4.88261C11.8341 4.86644 11.7709 4.82544 11.7228 4.83903C11.6116 4.87045 11.4995 4.91526 11.402 4.97741C9.47646 6.20449 7.55341 7.43552 5.62782 8.66248C5.52985 8.7249 5.50189 8.77628 5.54118 8.89587C5.84608 9.82385 6.14215 10.7548 6.4414 11.6847C6.45313 11.7211 6.46967 11.756 6.49656 11.8229Z" fill="#141414"/>
</svg>
