<svg width="16" height="16" viewBox="0 0 16 16" fill="none" xmlns="http://www.w3.org/2000/svg">
<path fill-rule="evenodd" clip-rule="evenodd" d="M6.25041 9.56934L6.25 5.73438L9.82765 7.65847L6.25041 9.56934ZM14.109 5.07082C14.109 5.07082 13.9794 4.13032 13.5826 3.71615C13.079 3.17232 12.5146 3.16976 12.256 3.1382C10.403 3 7.62359 3 7.62359 3H7.61779C7.61779 3 4.83834 3 2.98538 3.1382C2.72634 3.16976 2.16234 3.17232 1.65834 3.71615C1.26152 4.13032 1.13241 5.07082 1.13241 5.07082C1.13241 5.07082 1 6.17555 1 7.27984V8.31547C1 9.42019 1.13241 10.5245 1.13241 10.5245C1.13241 10.5245 1.26152 11.465 1.65834 11.8792C2.16234 12.423 2.824 12.4059 3.11862 12.4627C4.17793 12.5676 7.62069 12.6 7.62069 12.6C7.62069 12.6 10.403 12.5957 12.256 12.4575C12.5146 12.4255 13.079 12.423 13.5826 11.8792C13.9794 11.465 14.109 10.5245 14.109 10.5245C14.109 10.5245 14.2414 9.42019 14.2414 8.31547V7.27984C14.2414 6.17555 14.109 5.07082 14.109 5.07082Z" fill="#141414"/>
</svg>
