<svg width="13" height="22" viewBox="0 0 13 22" fill="none" xmlns="http://www.w3.org/2000/svg">
<path d="M6.49903 21.537C4.81568 21.537 3.38886 20.9516 2.21856 19.7808C1.04828 18.61 0.463135 17.183 0.463135 15.5V4.78803C0.463135 3.56756 0.894835 2.52277 1.75824 1.65365C2.62165 0.784533 3.66388 0.349976 4.88493 0.349976C6.10598 0.349976 7.15128 0.784533 8.02081 1.65365C8.89036 2.52277 9.32513 3.56756 9.32513 4.78803V14.387C9.32513 15.1717 9.05049 15.8388 8.50121 16.3881C7.95193 16.9373 7.28489 17.212 6.50011 17.212C5.71533 17.212 5.04829 16.9373 4.49901 16.3881C3.94973 15.8388 3.67508 15.1717 3.67508 14.387V4.78803H5.61316V14.387C5.61316 14.6423 5.69816 14.8563 5.86816 15.029C6.03816 15.2017 6.24881 15.288 6.50011 15.288C6.75141 15.288 6.96206 15.2017 7.13206 15.029C7.30206 14.8563 7.38706 14.6423 7.38706 14.387V4.78803C7.38706 4.08803 7.14539 3.49636 6.66206 3.01303C6.17873 2.52969 5.58706 2.28803 4.88706 2.28803C4.18706 2.28803 3.59539 2.52969 3.11206 3.01303C2.62873 3.49636 2.38706 4.08803 2.38706 4.78803V15.5C2.38706 16.6377 2.78815 17.6076 3.59034 18.4098C4.3925 19.212 5.36243 19.6131 6.50011 19.6131C7.63779 19.6131 8.60772 19.212 9.40988 18.4098C10.2121 17.6076 10.6132 16.6377 10.6132 15.5V4.78803H12.5371V15.5C12.5371 17.183 11.9516 18.61 10.7806 19.7808C9.60954 20.9516 8.18237 21.537 6.49903 21.537Z" fill="#B5B5B5"/>
</svg>
