<svg xmlns="http://www.w3.org/2000/svg" width="42" height="42" viewBox="0 0 42 42" fill="none">
  <path d="M19.3076 1.42929C20.1013 0.263026 21.8206 0.263025 22.6143 1.42928L23.2411 2.35015C23.8551 3.25228 25.0789 3.49571 25.9914 2.89722L26.9228 2.28629C28.1024 1.51257 29.6908 2.1705 29.9779 3.55174L30.2045 4.64236C30.4265 5.71078 31.464 6.40401 32.5361 6.20027L33.6304 5.99229C35.0163 5.7289 36.232 6.94459 35.9686 8.33054L35.7607 9.42486C35.5569 10.4969 36.2502 11.5344 37.3186 11.7564L38.4092 11.9831C39.7904 12.2701 40.4484 13.8585 39.6746 15.0381L39.0637 15.9696C38.4652 16.8821 38.7087 18.1059 39.6108 18.7199L40.5317 19.3466C41.6979 20.1404 41.6979 21.8596 40.5317 22.6534L39.6108 23.2801C38.7087 23.8941 38.4652 25.1179 39.0637 26.0304L39.6746 26.9619C40.4484 28.1415 39.7904 29.7299 38.4092 30.0169L37.3186 30.2436C36.2502 30.4656 35.5569 31.5031 35.7607 32.5751L35.9686 33.6695C36.232 35.0554 35.0163 36.2711 33.6304 36.0077L32.5361 35.7997C31.464 35.596 30.4265 36.2892 30.2045 37.3576L29.9779 38.4483C29.6908 39.8295 28.1024 40.4874 26.9228 39.7137L25.9914 39.1028C25.0789 38.5043 23.8551 38.7477 23.2411 39.6498L22.6143 40.5707C21.8206 41.737 20.1013 41.737 19.3076 40.5707L18.6808 39.6498C18.0668 38.7477 16.843 38.5043 15.9305 39.1028L14.9991 39.7137C13.8194 40.4874 12.2311 39.8295 11.944 38.4483L11.7174 37.3576C11.4954 36.2892 10.4579 35.596 9.3858 35.7997L8.29148 36.0077C6.90553 36.2711 5.68984 35.0554 5.95323 33.6695L6.1612 32.5751C6.36495 31.5031 5.67172 30.4656 4.6033 30.2436L3.51268 30.0169C2.13144 29.7299 1.47351 28.1415 2.24723 26.9619L2.85816 26.0304C3.45665 25.1179 3.21322 23.8941 2.31109 23.2801L1.39022 22.6534C0.223964 21.8596 0.223962 20.1404 1.39022 19.3466L2.31109 18.7199C3.21322 18.1059 3.45665 16.8821 2.85816 15.9696L2.24723 15.0381C1.47351 13.8585 2.13143 12.2701 3.51268 11.9831L4.60329 11.7564C5.67172 11.5344 6.36495 10.4969 6.16121 9.42487L5.95323 8.33054C5.68984 6.94459 6.90553 5.7289 8.29147 5.99229L9.3858 6.20027C10.4579 6.40401 11.4954 5.71078 11.7174 4.64236L11.944 3.55174C12.2311 2.1705 13.8194 1.51257 14.9991 2.28629L15.9305 2.89722C16.843 3.49571 18.0668 3.25228 18.6808 2.35015L19.3076 1.42929Z" fill="#B5B5B5"/>
</svg>
