<svg viewBox="0 0 2 3" fill="none" xmlns="http://www.w3.org/2000/svg">
		<path d="M0 1.48667C0 1.35333 0.0266667 1.22889 0.08 1.11333C0.133333 0.997778 0.204444 0.895555 0.293333 0.806666C0.391111 0.708889 0.497778 0.633333 0.613333 0.58C0.737778 0.526667 0.866667 0.5 1 0.5C1.13333 0.5 1.25778 0.526667 1.37333 0.58C1.49778 0.633333 1.60444 0.708889 1.69333 0.806666C1.79111 0.895555 1.86667 0.997778 1.92 1.11333C1.97333 1.22889 2 1.35333 2 1.48667C2 1.75333 1.90222 1.98889 1.70667 2.19333C1.51111 2.39778 1.27556 2.5 1 2.5C0.724445 2.5 0.488889 2.39778 0.293333 2.19333C0.0977777 1.98889 0 1.75333 0 1.48667Z"
					fill="black"/>
</svg>
